<svg width="40" height="41" viewBox="0 0 40 41" fill="none" xmlns="http://www.w3.org/2000/svg">
<path d="M37.3425 38.3823C37.5753 38.3823 37.7985 38.2917 37.963 38.1304C38.1276 37.9692 38.22 37.7504 38.22 37.5224V35.8025C38.22 35.5744 38.1276 35.3557 37.963 35.1944C37.7985 35.0331 37.5753 34.9425 37.3425 34.9425H35.88V15.1637C35.88 14.9356 35.7876 14.7169 35.623 14.5556C35.4585 14.3943 35.2353 14.3037 35.0025 14.3037H27.69V3.69766C27.69 3.46958 27.5976 3.25085 27.433 3.08958C27.2685 2.92831 27.0453 2.83771 26.8125 2.83771H12.1875C11.9548 2.83771 11.7316 2.92831 11.567 3.08958C11.4025 3.25085 11.31 3.46958 11.31 3.69766V8.57071H3.99753C3.7648 8.57071 3.54161 8.66131 3.37704 8.82258C3.21248 8.98385 3.12003 9.20258 3.12003 9.43066V34.9425H1.65753C1.4248 34.9425 1.20161 35.0331 1.03704 35.1944C0.87248 35.3557 0.780029 35.5744 0.780029 35.8025V37.5224C0.780029 37.7504 0.87248 37.9692 1.03704 38.1304C1.20161 38.2917 1.4248 38.3823 1.65753 38.3823H37.3425ZM10.14 32.6493H6.63003V29.2095H10.14V32.6493ZM10.14 26.9163H6.63003V23.4765H10.14V26.9163ZM10.14 21.1833H6.63003V17.7435H10.14V21.1833ZM10.14 15.4503H6.63003V12.0105H10.14V15.4503ZM18.33 32.6493H14.82V29.2095H18.33V32.6493ZM18.33 26.9163H14.82V23.4765H18.33V26.9163ZM18.33 21.1833H14.82V17.7435H18.33V21.1833ZM18.33 15.4503H14.82V12.0105H18.33V15.4503ZM18.33 9.71731H14.82V6.27751H18.33V9.71731ZM24.18 32.6493H20.67V29.2095H24.18V32.6493ZM24.18 26.9163H20.67V23.4765H24.18V26.9163ZM24.18 21.1833H20.67V17.7435H24.18V21.1833ZM24.18 15.4503H20.67V12.0105H24.18V15.4503ZM24.18 9.71731H20.67V6.27751H24.18V9.71731ZM32.37 32.6493H28.86V29.2095H32.37V32.6493ZM32.37 26.9163H28.86V23.4765H32.37V26.9163ZM32.37 21.1833H28.86V17.7435H32.37V21.1833Z" fill="white"/>
</svg>
