<svg width="40" height="41" viewBox="0 0 40 41" fill="none" xmlns="http://www.w3.org/2000/svg">
<path d="M34.9601 6.09179C34.9601 5.0284 34.0801 4.12256 32.9601 4.12256H7.04004C5.96004 4.12256 5.04004 4.98902 5.04004 6.09179V22.7909H34.9601V6.09179ZM32.1601 20.034H7.84004V6.91886H32.1601V20.034Z" fill="white"/>
<path d="M38.8 32.4401L34.96 24.1694H5.03995L1.19996 32.4401C0.599957 33.7398 1.55996 35.1971 2.99996 35.1971H37C38.44 35.2364 39.44 33.7398 38.8 32.4401ZM24.32 32.2038H15.72C15.44 32.2038 15.28 31.9675 15.32 31.6918L15.8 29.8013C15.84 29.6438 16 29.4863 16.2 29.4863H23.8C24 29.4863 24.16 29.6044 24.2 29.8013L24.68 31.6918C24.76 31.9675 24.56 32.2038 24.32 32.2038Z" fill="white"/>
</svg>
