<svg width="40" height="41" viewBox="0 0 40 41" fill="none" xmlns="http://www.w3.org/2000/svg">
<path d="M20 1.47998C9.52441 1.47998 1 9.8339 1 20.1C1 30.3661 9.52441 38.72 20 38.72C30.4756 38.72 39 30.3661 39 20.1C39 9.8339 30.4756 1.47998 20 1.47998ZM20 30.74C18.5011 30.74 17.2857 29.5489 17.2857 28.08C17.2857 26.6107 18.5011 25.42 20 25.42C21.4989 25.42 22.7143 26.6107 22.7143 28.08C22.7143 29.5489 21.4989 30.74 20 30.74ZM22.7143 20.1C22.7143 21.5704 21.5005 22.76 20 22.76C18.4995 22.76 17.2857 21.5704 17.2857 20.1V12.12C17.2857 10.6495 18.4995 9.45998 20 9.45998C21.5005 9.45998 22.7143 10.6495 22.7143 12.12V20.1Z" fill="white"/>
</svg>
