<svg width="40" height="41" viewBox="0 0 40 41" fill="none" xmlns="http://www.w3.org/2000/svg">
<path d="M38.92 31.3683L36.8 26.7734C37.72 25.2418 38.28 23.4745 38.28 21.5894C38.24 16.0127 33.64 11.4963 27.96 11.4963C27.36 11.4963 26.76 11.5356 26.16 11.6534C27.72 13.9705 28.64 16.7196 28.64 19.7043C28.64 24.1029 26.64 28.0302 23.48 30.7007C24.84 31.3291 26.32 31.6825 27.92 31.6825C29.84 31.6825 31.64 31.172 33.2 30.2687L37.88 32.3502C38.56 32.6251 39.2 31.9967 38.92 31.3683Z" fill="white"/>
<path d="M13.9199 7.84399C7.23989 7.84399 1.83989 13.1458 1.83989 19.7044C1.83989 21.9429 2.47989 24.0244 3.55989 25.7916L1.07989 31.172C0.75989 31.9182 1.51989 32.6644 2.23989 32.3109L7.71989 29.8367C9.51989 30.8971 11.6399 31.5254 13.9199 31.5254C20.5999 31.5647 25.9999 26.2629 25.9999 19.7044C25.9999 13.1458 20.5999 7.84399 13.9199 7.84399ZM13.8399 27.0484C12.9599 27.0484 12.1999 26.3414 12.1999 25.4382C12.1999 24.5742 12.9199 23.828 13.8399 23.828C14.7199 23.828 15.4799 24.5349 15.4799 25.4382C15.4399 26.3414 14.7199 27.0484 13.8399 27.0484ZM15.8399 20.5684C15.0799 21.1967 15.0799 21.5109 15.0799 21.6287V22.1785C15.0799 22.4927 14.8399 22.7284 14.5199 22.7284H13.0399C12.7199 22.7284 12.4799 22.4927 12.4799 22.1785V21.6287C12.4799 20.5291 13.0399 19.5473 14.1999 18.6047C14.9999 17.9371 15.8799 17.1909 15.8799 16.4447C15.8799 15.3451 15.3599 14.8738 14.0399 14.8738C12.0399 14.8738 11.9999 16.3269 11.9999 16.4054V16.6804C11.9999 16.9945 11.7599 17.2302 11.4399 17.2302H9.95989C9.63989 17.2302 9.39989 16.9945 9.39989 16.6804V16.4054C9.39989 14.7953 10.6399 12.3604 13.9999 12.3604C17.2799 12.3604 18.4399 14.4811 18.4399 16.484C18.4399 18.4476 16.7999 19.7829 15.8399 20.5684Z" fill="white"/>
</svg>
