<svg width="40" height="41" viewBox="0 0 40 41" fill="none" xmlns="http://www.w3.org/2000/svg">
<path d="M15.8959 4.4441L15.7939 4.01121C16.3855 3.87583 16.9895 3.76761 17.5899 3.68457L17.6531 4.12572C17.0655 4.20561 16.4739 4.31383 15.8959 4.4441Z" fill="white"/>
<path d="M24.7668 4.4181C24.19 4.28902 23.5992 4.1871 23.0056 4.11232L23.0656 3.67078C23.6716 3.74752 24.2764 3.85338 24.8644 3.98364L24.7668 4.4181Z" fill="white"/>
<path d="M19.4355 3.96596L19.4143 3.52165C20.0239 3.49371 20.6427 3.49371 21.2431 3.51732L21.2263 3.96281C20.6295 3.93841 20.0299 3.93841 19.4355 3.96596Z" fill="white"/>
<path d="M2.90088 33.883C3.21448 34.3969 3.55408 34.9007 3.91088 35.3819L4.27648 35.1187C3.92768 34.6496 3.59488 34.1581 3.28728 33.6539L2.90088 33.883Z" fill="white"/>
<path d="M1.30688 30.6473C1.52288 31.2104 1.76528 31.7669 2.02928 32.2998L2.43528 32.1057C2.17848 31.5847 1.94088 31.0404 1.72888 30.4915L1.30688 30.6473Z" fill="white"/>
<path d="M0.330322 27.1826C0.440322 27.7722 0.577122 28.3629 0.739122 28.9358L1.17512 28.8174C1.01672 28.2558 0.882722 27.6789 0.775122 27.1024L0.330322 27.1826Z" fill="white"/>
<path d="M0.452 23.6026H0C0.0008 24.2 0.0292 24.8045 0.084 25.4007L0.534 25.3605C0.48 24.7765 0.4524 24.1858 0.452 23.6026Z" fill="white"/>
<path d="M0.762348 20.1006L0.317148 20.0219C0.211548 20.6094 0.130348 21.2084 0.0771484 21.8065L0.527148 21.8443C0.579548 21.2599 0.657948 20.6728 0.762348 20.1006Z" fill="white"/>
<path d="M1.70193 16.7079L1.27833 16.5532C1.06513 17.1179 0.876329 17.6929 0.717529 18.2647L1.15393 18.3824C1.30953 17.824 1.49433 17.2608 1.70193 16.7079Z" fill="white"/>
<path d="M3.2467 13.5387L2.8579 13.3116C2.5475 13.824 2.2571 14.3577 1.9939 14.898L2.4015 15.0889C2.6587 14.5627 2.9431 14.0393 3.2467 13.5387Z" fill="white"/>
<path d="M3.8645 11.8091L4.2305 12.0696C4.5789 11.5966 4.9533 11.1334 5.3433 10.6922L5.0021 10.3998C4.6025 10.85 4.2201 11.3254 3.8645 11.8091Z" fill="white"/>
<path d="M7.63516 7.91034C7.16356 8.28144 6.70076 8.68128 6.26196 9.09488L6.57476 9.41798C7.00476 9.01106 7.45756 8.6187 7.91756 8.25744L7.63516 7.91034Z" fill="white"/>
<path d="M34.4297 9.01185C33.9917 8.60179 33.5273 8.20589 33.0509 7.83203L32.7681 8.18149C33.2369 8.54591 33.6901 8.93354 34.1197 9.33455L34.4297 9.01185Z" fill="white"/>
<path d="M10.8935 6.30864L10.6775 5.91943C10.1479 6.20081 9.62108 6.51328 9.11108 6.847L9.36228 7.21535C9.86028 6.88989 10.3755 6.58608 10.8935 6.30864Z" fill="white"/>
<path d="M31.5667 6.77776C31.0603 6.45073 30.5327 6.14181 29.9927 5.85846L29.7815 6.25081C30.3055 6.52629 30.8235 6.82931 31.3199 7.14886L31.5667 6.77776Z" fill="white"/>
<path d="M14.1736 4.91632L14.032 4.49445C13.45 4.68216 12.8744 4.89743 12.3232 5.13237L12.5016 5.54086C13.0416 5.31064 13.6052 5.10207 14.1736 4.91632Z" fill="white"/>
<path d="M28.3449 5.0832C27.7881 4.85259 27.2113 4.64047 26.6297 4.4563L26.4917 4.88014C27.0609 5.0592 27.6241 5.2662 28.1681 5.49366L28.3449 5.0832Z" fill="white"/>
<path d="M39.6517 14.0365L38.5653 12.9697L39.0121 9.33457L38.5157 8.85052L37.2369 11.66L36.4969 10.9335C36.4325 10.8694 36.3453 10.8206 36.2533 10.7914L36.5029 9.57817L36.1061 9.18739L35.5157 10.5478L34.1337 11.1279L34.5293 11.5191L35.7641 11.2735C35.7941 11.3636 35.8437 11.449 35.9089 11.5136L36.6489 12.2416L33.7913 13.5013L34.2821 13.9877L37.9801 13.5501L39.0629 14.617C39.2629 14.8165 39.5277 14.9381 39.8121 14.9582C39.8617 14.9582 39.9109 14.944 39.9477 14.9094C39.9813 14.8744 40.0029 14.8264 39.9993 14.7776C39.9785 14.4954 39.8545 14.2349 39.6517 14.0365Z" fill="white"/>
<path d="M20.436 9.44714C13.1348 9.44714 7.19556 15.2904 7.19556 22.4736C7.19556 29.656 13.1348 35.5 20.436 35.5C27.7364 35.5 33.6764 29.656 33.6764 22.4736C33.6764 15.2904 27.7364 9.44714 20.436 9.44714ZM31.2292 24.5971C31.4696 24.836 31.5772 25.0564 31.6256 25.2952C30.3468 30.2007 25.8148 33.8373 20.436 33.8373C18.4444 33.8373 16.5696 33.3387 14.9324 32.4623C14.9488 32.3919 14.9648 32.3203 14.9808 32.2439C15.0784 31.7807 15.806 31.5584 16.1184 31.2518C16.4228 30.9519 17.0284 30.7705 17.2164 30.3785C17.3396 30.1216 17.1652 29.7922 17.27 29.5525C17.3496 29.3723 17.6532 29.1759 17.7956 29.0354C18.1532 28.6836 18.4212 27.7682 18.4212 27.2873C17.886 27.2873 17.3512 27.2873 16.8164 27.2873C16.3096 27.2873 16.408 26.6978 16.406 26.3314C16.4056 26.1347 16.4184 25.8942 16.3212 25.7144C16.2104 25.5097 15.8516 25.5695 15.6592 25.4735C15.3244 25.3063 15.0468 24.9788 14.9812 24.6109C14.938 24.3696 14.9468 24.1929 14.6384 24.2048C14.3352 24.2173 14.0536 24.4562 13.7716 24.4562C13.4176 24.4562 13.0636 24.4562 12.7096 24.4562C11.9268 24.4562 11.144 24.4562 10.362 24.4562C10.362 24.581 10.29 24.9871 10.4056 25.0442C10.6948 25.1858 10.9836 25.3283 11.2724 25.4704C11.7036 25.6829 11.83 26.2138 12.0408 26.6278C12.248 27.0355 12.4828 27.4361 12.6644 27.854C12.8892 28.3711 13.0524 28.9469 13.4616 29.3624C13.634 29.5376 13.9684 29.5017 14.0416 29.743C14.1344 30.046 14.0388 30.4159 13.968 30.7142C13.8896 31.0444 13.7912 31.3707 13.7044 31.6989C11.318 30.0082 9.61276 27.4459 9.07196 24.4897C9.23276 24.4775 9.39396 24.4562 9.48756 24.4562C9.79956 24.4562 9.80916 24.4334 10.0352 24.2118C10.2332 24.017 10.362 23.9592 10.362 23.6908C10.362 23.3799 10.362 23.0678 10.362 22.7573C10.746 22.9458 11.1292 23.1351 11.5132 23.3232C11.53 22.8655 11.8624 22.8069 12.2456 22.7436C12.7008 22.6696 13.0004 22.1906 13.422 22.1906C13.7696 22.1906 13.914 22.256 14.2404 22.3599C14.4116 22.4153 14.6264 22.4795 14.8052 22.4248C15.0456 22.3508 14.9888 21.9285 15.072 21.7389C15.1916 21.4646 15.3736 21.0765 15.696 21.0502C16.0464 21.0226 16.5008 20.8672 16.1184 20.4917C15.6988 20.0789 15.3852 19.5524 15.1016 19.0435C14.9804 18.8251 14.95 18.4808 14.7456 18.33C14.2992 18.0003 13.6288 18.4473 13.2936 18.7433C13.1052 18.9105 13.4008 19.295 13.142 19.4024C12.7212 19.5779 12.172 19.7188 11.7376 19.5146C11.5008 19.4032 11.3544 19.1301 11.0856 19.0813C10.9 19.0482 10.9376 18.9971 10.9376 18.7924C10.9376 18.4477 10.9376 18.1022 10.9376 17.7571C10.9376 17.6138 10.978 17.6701 11.1104 17.6327C11.6316 17.4855 11.324 16.8181 11.8404 16.8098C12.4392 16.8 11.848 15.7961 11.686 15.5914C11.5952 15.4765 11.5048 15.425 11.406 15.4017C13.524 12.7894 16.7836 11.111 20.4364 11.111C23.7608 11.111 26.76 12.5018 28.8692 14.7209C28.2484 15.3844 27.5812 16.1396 27.1276 16.4745C26.8164 16.704 26.4132 16.8433 26.0656 17.0141C25.7188 17.1852 25.2484 17.0936 24.8684 17.0936C24.7696 17.0936 23.6024 17.0778 23.6024 17.1077C23.6024 17.4481 23.7756 18.1408 23.4416 18.3056C23.0428 18.5016 22.5952 18.6512 22.278 18.9625C22.188 19.051 21.8196 19.3037 21.9256 19.4083C21.9256 19.4083 21.9264 19.4091 21.9272 19.4095C21.8692 19.3788 21.8096 19.3591 21.7476 19.3611C21.296 19.3761 20.7356 19.395 20.342 19.6397C20.0924 19.7948 20.16 20.0293 20.1268 20.2871C20.0892 20.5767 19.9968 20.8833 19.7852 21.0978C19.5324 21.3544 19.5728 21.3965 19.5728 21.8128C20.0204 21.764 20.4688 21.7148 20.9176 21.6664C20.9704 21.6594 21.2996 21.6578 21.2996 21.5999C21.2996 21.4905 21.2368 21.1198 21.3132 21.0447C21.4828 20.8778 21.6544 20.709 21.8252 20.5409C21.9288 20.439 22.1172 20.7298 22.202 20.8136C22.358 20.9667 22.5104 20.9994 22.3448 21.1607C22.1884 21.3158 22.0312 21.4705 21.8748 21.6243C21.9444 21.6243 22.4496 21.6428 22.4508 21.6113C22.4712 21.1887 22.7312 20.7818 23.026 20.4917C23.3444 20.1785 23.7808 20.1749 24.124 20.4457C24.2628 20.5559 24.1776 20.9097 24.1776 21.058C24.1776 21.1576 24.1496 22.1906 24.2024 22.1906C24.4556 22.1906 24.6764 22.2481 24.8704 22.0863C25.5372 21.5342 26.4096 21.6664 27.056 21.058C27.2476 21.4354 27.44 21.8128 27.6316 22.1906C27.1744 22.341 26.7168 22.4905 26.2596 22.6404C26.2236 22.6519 25.9148 22.7766 25.8988 22.7463C25.7944 22.5444 25.6832 22.3374 25.5412 22.158C25.3524 21.9191 25.3052 22.1265 25.3424 22.3461C25.4028 22.7089 25.6368 23.0485 25.8908 23.3106C26.1572 23.5853 26.3064 24.1146 26.48 24.4566C26.444 23.7604 27.474 24.8679 27.6316 25.0225C27.8748 24.7832 28.1196 24.5424 28.3624 24.3039C28.484 24.1843 28.604 24.0662 28.7244 23.9478C28.822 23.8514 28.7132 23.8238 28.638 23.7199C28.2316 23.1611 29.2752 23.3236 29.5924 23.3236C30.1916 23.3236 30.6472 23.4775 31.0852 23.8899C30.5288 23.8616 31.1012 24.4704 31.2292 24.5971Z" fill="white"/>
<path d="M20.9156 18.2257C20.7884 18.3516 20.6596 18.4772 20.5324 18.6035C20.4012 18.6507 20.1844 18.6598 20.1764 18.8085C20.1668 18.9923 20.1584 19.1749 20.1484 19.3587C20.3992 19.2355 20.65 19.112 20.9004 18.9892C20.9804 18.9494 20.9156 18.3351 20.9156 18.2257Z" fill="white"/>
<path d="M22.0572 17.6594C22.2 17.6594 22.4508 17.7382 22.4508 17.5709C22.4508 17.5674 22.4508 17.5634 22.4508 17.5603C22.4784 17.6142 22.528 17.648 22.6052 17.6551C22.5592 17.8456 22.5088 18.0361 22.4508 18.2261C22.626 18.0538 22.8004 17.8818 22.976 17.709C23.0936 17.5933 23.026 17.3037 23.026 17.1502C23.026 17.1235 23.026 17.0963 23.026 17.0691C23.026 16.7 23.026 16.3301 23.026 15.9606C23.0152 15.9822 22.996 16.0172 22.9732 16.0582C22.966 15.9783 22.9624 15.8999 22.954 15.8193C22.9316 15.9519 22.9096 16.0833 22.8872 16.2152C22.74 16.4859 22.5284 16.8972 22.4504 17.2124C22.4504 17.1648 22.4504 17.1172 22.4504 17.0695C22.4504 16.7004 22.4504 16.3305 22.4504 15.9609C22.3344 16.1892 21.4448 17.6594 22.0572 17.6594Z" fill="white"/>
<path d="M27.2136 26.708C27.5896 26.6462 27.9356 26.4105 28.2076 26.1551C27.7808 26.0154 27.3552 25.8753 26.928 25.7356C26.4504 25.5789 26.4492 25.5282 26.218 25.0721C26.0368 24.7143 25.9116 24.4625 25.6296 24.185C25.4236 23.9824 24.7536 23.5318 24.7536 23.2347C24.7536 22.7825 24.8428 22.7569 24.4124 22.7569C23.8732 22.7569 23.3344 22.7569 22.7948 22.7569C21.9124 22.7569 21.0304 22.7569 20.1484 22.7569C19.8004 23.104 19.4628 23.4814 19.2072 23.9005C18.7524 24.6463 19.3212 25.0189 19.8192 25.5553C20.352 26.1287 20.1456 27.1023 21.1424 27.2743C21.498 27.3349 21.9 27.2873 22.26 27.2873C22.3028 27.2873 23.092 27.1779 23.016 27.0417C23.0996 27.1893 23.0536 27.5994 23.0832 27.7784C23.1508 28.1802 23.2392 28.5793 23.3296 28.9763C23.4364 29.4498 23.6028 29.9169 23.6028 30.4025C23.6028 30.9019 24.1312 31.2053 24.4784 31.5473C24.6104 31.6772 24.686 31.8181 24.8736 31.8181C25.198 31.8181 25.524 31.8181 25.8488 31.8181C26.0104 31.8181 25.7088 29.8535 26.2204 29.6052C26.3664 29.5344 26.6552 29.6135 26.7416 29.4494C26.8012 29.338 26.736 29.2011 26.7956 29.0901C26.9388 28.8185 27.2768 29.0838 27.3096 28.6367C27.3352 28.2739 27.27 27.525 27.01 27.2377C26.6936 26.8882 26.792 26.7777 27.2136 26.708Z" fill="white"/>
<path d="M18.4141 14.8208C18.1213 14.5363 17.8057 14.2668 17.4673 14.0354C17.0101 13.7229 16.6657 13.6949 16.1185 13.6949C15.8569 13.6949 15.5901 13.6772 15.3293 13.6981C15.2169 13.7071 15.2605 13.8307 15.2281 13.9126C15.0317 14.4068 14.2153 15.0007 13.8157 15.3938C14.3685 15.3938 14.6769 16.5221 14.8865 16.9345C15.0125 17.1821 14.9673 17.4394 14.9673 17.7161C14.9673 18.121 14.9317 18.1911 15.2161 18.4709C15.4985 18.7487 15.4745 18.8601 15.7533 18.5858C16.0337 18.3099 16.3137 18.0345 16.5937 17.759C16.7777 17.5772 16.6941 17.2828 16.6941 17.0365C16.6941 16.6728 16.5629 16.5268 16.9369 16.5268C17.2241 16.5268 17.4937 16.552 17.7249 16.3568C17.9001 16.2081 18.0365 16.0207 18.2773 15.9739C18.5445 15.922 19.1093 15.8279 18.9965 15.3938C18.9509 15.2179 18.5509 14.9539 18.4141 14.8208Z" fill="white"/>
</svg>
