<svg width="25" height="25" viewBox="0 0 25 25" fill="none" xmlns="http://www.w3.org/2000/svg">
<path d="M23.4257 3.90216C23.3788 3.71308 23.2033 3.58692 23.0168 3.6012C16.5577 4.11372 11.1883 8.62756 8.51613 15.735C7.0284 13.4082 4.78136 13.0372 3.50058 13.0372C2.54843 13.0372 1.87535 13.2284 1.84711 13.2366C1.6966 13.2801 1.58597 13.4112 1.56578 13.57C1.54558 13.7288 1.61996 13.8844 1.75441 13.9658C4.85097 15.8393 6.75472 18.9842 7.80644 21.2924C8.00539 21.7289 8.40574 22 8.85148 22C9.36457 22 9.80171 21.6576 9.96539 21.1275C13.7811 8.76364 23.111 4.40836 23.2049 4.3658C23.3788 4.28692 23.4723 4.091 23.4257 3.90216Z" fill="#011368"/>
</svg>
