<svg width="25" height="25" viewBox="0 0 25 25" fill="none" xmlns="http://www.w3.org/2000/svg">
<path d="M13.8811 12.5001L24.714 1.66715C25.0953 1.28575 25.0953 0.667395 24.714 0.286047C24.3326 -0.0953003 23.7142 -0.0953491 23.3329 0.286047L12.5 11.119L1.66715 0.286047C1.28575 -0.0953491 0.667393 -0.0953491 0.286047 0.286047C-0.0953 0.667444 -0.0953488 1.2858 0.286047 1.66715L11.1189 12.5L0.286047 23.3329C-0.0953488 23.7143 -0.0953488 24.3327 0.286047 24.714C0.47672 24.9047 0.72667 25 0.976621 25C1.22657 25 1.47647 24.9047 1.66719 24.714L12.5 13.8812L23.3328 24.714C23.5235 24.9047 23.7734 25 24.0234 25C24.2733 25 24.5232 24.9047 24.714 24.714C25.0953 24.3326 25.0953 23.7143 24.714 23.3329L13.8811 12.5001Z" fill="#E8ECFC"/>
</svg>
