<svg width="37" height="34" viewBox="0 0 37 34" fill="none" xmlns="http://www.w3.org/2000/svg">
<path fill-rule="evenodd" clip-rule="evenodd" d="M21.9248 12.6385H32.5982C33.0725 12.6385 33.4283 12.985 33.4283 13.4471V16.335C33.4283 16.7971 33.0725 17.1437 32.5982 17.1437H21.9248V12.6385Z" fill="#011368"/>
<path fill-rule="evenodd" clip-rule="evenodd" d="M2.83162 12.6385H13.6236V17.1437H2.83162C2.35724 17.1437 2.00146 16.7971 2.00146 16.335V13.4471C2.00146 12.985 2.35724 12.6385 2.83162 12.6385Z" fill="#011368"/>
<path fill-rule="evenodd" clip-rule="evenodd" d="M15.4023 32.0455V12.4074C15.4023 11.9453 15.8767 11.5988 16.3511 11.5988H19.1973C19.6717 11.5988 20.0275 11.9453 20.0275 12.4074V32.0455C20.0275 32.5076 19.6717 32.9697 19.1973 32.9697H16.3511C15.8767 32.9697 15.4023 32.6231 15.4023 32.0455Z" fill="#011368"/>
<path fill-rule="evenodd" clip-rule="evenodd" d="M31.4122 18.8764V30.0817C31.4122 31.2369 30.4635 32.161 29.2776 32.161H21.9248V18.8764H31.4122Z" fill="#011368"/>
<path fill-rule="evenodd" clip-rule="evenodd" d="M13.6237 18.8764V32.161H6.15231C5.08497 32.161 4.13623 31.2369 4.13623 30.0817V18.8764H13.6237Z" fill="#011368"/>
<path fill-rule="evenodd" clip-rule="evenodd" d="M15.165 10.9057C10.4213 11.7143 6.15197 11.1367 2.47559 9.40395C2.83136 9.05739 3.18714 8.71084 3.54292 8.36429C3.54292 7.90221 3.54292 7.32462 3.54292 6.86255C5.559 8.13325 10.0655 10.6746 15.165 10.9057Z" fill="#011368"/>
<path fill-rule="evenodd" clip-rule="evenodd" d="M25.6017 2.1263C27.1434 3.62804 27.1434 6.16944 25.6017 7.7867C24.06 9.17291 20.265 9.17291 18.0117 9.40395C18.3675 7.32462 18.2489 3.62804 19.7906 2.1263C21.4509 0.624566 23.9414 0.624566 25.6017 2.1263ZM20.6208 6.97807C22.0439 6.86255 23.467 6.63151 23.9414 6.16944C24.6529 5.47633 24.6529 4.43667 23.9414 3.74356C23.2298 3.05045 22.1625 3.05045 21.4509 3.74356C20.9765 4.09011 20.7394 5.59185 20.6208 6.97807Z" fill="#011368"/>
<path fill-rule="evenodd" clip-rule="evenodd" d="M11.0145 3.62804C9.71 4.78323 9.71 6.86255 11.0145 8.13325C12.2005 9.28844 15.2839 9.28844 17.0628 9.40395C16.8256 7.67118 16.9442 4.78323 15.6397 3.62804C14.3351 2.35734 12.319 2.35734 11.0145 3.62804ZM15.0467 7.44015C13.8608 7.32463 12.6748 7.20911 12.319 6.86255C11.7261 6.28496 11.7261 5.36082 12.319 4.78323C12.912 4.32115 13.8608 4.32115 14.3351 4.78323C14.6909 5.12978 14.9281 6.40048 15.0467 7.44015Z" fill="#011368"/>
<path fill-rule="evenodd" clip-rule="evenodd" d="M20.3833 10.9057C25.0084 11.7143 29.2778 11.1367 32.9542 9.40395C32.5984 9.05739 32.2426 8.71084 31.8868 8.36429C31.8868 7.90221 32.0054 7.32462 32.0054 6.86255C29.9893 8.13325 25.3642 10.6746 20.3833 10.9057Z" fill="#011368"/>
</svg>
