<svg width="30" height="30" viewBox="0 0 30 30" fill="none" xmlns="http://www.w3.org/2000/svg">
<path fill-rule="evenodd" clip-rule="evenodd" d="M26.5247 24.9454L18.0984 16.4567L16.7147 17.5296C15.7041 18.3126 14.2959 18.3126 13.2853 17.5296L11.9016 16.4567L3.47531 24.9454C3.85031 25.1258 4.26375 25.2221 4.6875 25.2221H25.3125C25.7362 25.2221 26.1497 25.1258 26.5247 24.9454ZM10.4025 15.296L1.875 8.68678V22.3888C1.875 22.8157 1.97062 23.2322 2.14969 23.6099L10.4025 15.296ZM28.125 8.68678L19.5975 15.296L27.8503 23.6099C28.0294 23.2322 28.125 22.8157 28.125 22.3888V8.68678ZM2.01094 6.40878L14.4281 16.0317C14.7656 16.2933 15.2344 16.2933 15.5719 16.0317L27.9891 6.40878C27.8541 5.98473 27.6197 5.59467 27.3009 5.2745C26.7741 4.74278 26.0588 4.44434 25.3125 4.44434H4.6875C3.94125 4.44434 3.22594 4.74278 2.69906 5.2745C2.38031 5.59467 2.14594 5.98473 2.01094 6.40878Z" fill="#F6DB34"/>
</svg>
