<svg width="30" height="30" viewBox="0 0 30 30" fill="none" xmlns="http://www.w3.org/2000/svg">
<path d="M26.8723 21.3292C25.7579 19.0754 23.8571 17.6049 21.1418 16.9487C20.7339 16.8501 20.3005 16.948 19.9749 17.2057L17.7199 18.9907C17.2795 19.3393 16.6572 19.3841 16.1733 19.0949C13.7878 17.6694 11.8577 15.7996 10.3862 13.4888C10.0877 13.0199 10.134 12.4171 10.4938 11.9905L12.3364 9.80592C12.6025 9.49055 12.7035 9.07082 12.6017 8.67553C11.9244 6.04517 10.4064 4.20391 8.07992 3.12412C7.70458 2.94993 7.26174 2.95968 6.89471 3.14962C5.72487 3.75483 4.60554 4.4398 3.54521 5.20981C3.13913 5.50464 2.93422 5.9923 3.01883 6.47709C3.78116 10.8508 6.2205 15.4501 10.1846 19.29C14.1488 23.1303 18.8963 25.4933 23.4109 26.2318C23.9113 26.3136 24.4145 26.1151 24.7191 25.7219C25.5141 24.6947 26.221 23.6104 26.8457 22.4771C27.0416 22.1213 27.0517 21.6924 26.8719 21.3287L26.8723 21.3292Z" fill="#F6DB34"/>
</svg>
