<svg width="30" height="30" viewBox="0 0 30 30" fill="none" xmlns="http://www.w3.org/2000/svg">
<path d="M15.0001 1.5C14.0619 1.5 13.1328 1.68479 12.2661 2.04383C11.3993 2.40286 10.6117 2.92911 9.94825 3.59253C9.28483 4.25594 8.75858 5.04353 8.39955 5.91032C8.04051 6.77712 7.85571 7.70614 7.85571 8.64435C7.85571 14.0622 15.0001 21.4263 15.0001 21.4263C15.0001 21.4263 22.1445 14.0622 22.1445 8.64435C22.1445 6.74955 21.3917 4.93236 20.0519 3.59253C18.7121 2.25271 16.8949 1.5 15.0001 1.5ZM15.0001 11.9507C14.3462 11.9507 13.7069 11.7568 13.1632 11.3935C12.6195 11.0302 12.1957 10.5138 11.9454 9.90963C11.6952 9.30548 11.6297 8.64069 11.7573 7.99932C11.8849 7.35795 12.1998 6.76882 12.6622 6.30642C13.1246 5.84402 13.7137 5.52912 14.355 5.40155C14.9964 5.27397 15.6612 5.33945 16.2654 5.5897C16.8695 5.83995 17.3859 6.26373 17.7492 6.80745C18.1125 7.35117 18.3064 7.99042 18.3064 8.64435C18.3064 9.52125 17.9581 10.3622 17.338 10.9823C16.718 11.6023 15.877 11.9507 15.0001 11.9507Z" fill="#F6DB34"/>
<path d="M11.1097 22.2236C8.087 22.7557 6 23.8885 6 25.2001C6 27.0227 10.0295 28.5001 15 28.5001C19.9705 28.5001 24 27.0227 24 25.2001C24 23.8885 21.913 22.7557 18.8903 22.2236C19.7737 22.5718 20.3182 23.0371 20.3182 23.5501C20.3182 24.6271 17.9372 25.5001 15 25.5001C12.0628 25.5001 9.68181 24.6271 9.68181 23.5501C9.68181 23.0371 10.2263 22.5718 11.1097 22.2236Z" fill="#F6DB34"/>
</svg>
