<svg width="36" height="36" viewBox="0 0 36 36" fill="none" xmlns="http://www.w3.org/2000/svg">
<path d="M11.4347 21.5989H13.5118V21.0193C13.5118 20.0592 14.2913 19.2783 15.2497 19.2783H20.7514C21.7098 19.2783 22.4893 20.0592 22.4893 21.0193V21.6001H24.5664L32.9143 13.2371V10.8665C32.9143 10.5465 32.654 10.2858 32.3346 10.2858H3.66537C3.34591 10.2858 3.08569 10.5465 3.08569 10.8665V13.2371L11.4347 21.5989Z" fill="#F6DB34"/>
<path d="M15.0265 24.6857H20.9733C21.3186 24.6857 21.5999 24.4392 21.5999 24.1366V21.1205C21.5999 20.8179 21.3186 20.5714 20.9733 20.5714H15.0265C14.6812 20.5714 14.3999 20.8179 14.3999 21.1205V24.1377C14.3999 24.4403 14.6812 24.6857 15.0265 24.6857Z" fill="#F6DB34"/>
<path d="M25.2155 22.5806C25.1063 22.681 24.9599 22.7382 24.8054 22.7382H22.4889V24.0829C22.4889 24.9733 21.7094 25.6974 20.751 25.6974H15.249C14.2906 25.6974 13.5111 24.9733 13.5111 24.0829V22.7382H11.1946C11.0412 22.7382 10.8937 22.681 10.7845 22.5806L3.08569 15.4286V31.3472C3.08569 31.644 3.34592 31.8857 3.6654 31.8857H32.3346C32.654 31.8857 32.9143 31.644 32.9143 31.3472V15.4286L25.2155 22.5806Z" fill="white"/>
<path d="M23.0539 4.11426H13.9745C11.9406 4.11426 10.2856 5.69283 10.2856 7.63294V9.25711H11.9884V7.63294C11.9884 6.58852 12.8796 5.73843 13.9745 5.73843H23.0539C24.1488 5.73843 25.0401 6.58852 25.0401 7.63294V9.25711H26.7428V7.63294C26.7428 5.69283 25.0879 4.11426 23.0539 4.11426Z" fill="white"/>
</svg>
