<svg width="37" height="37" viewBox="0 0 37 37" fill="none" xmlns="http://www.w3.org/2000/svg">
<path d="M19 18.9683C21.782 18.9683 24.0373 16.713 24.0373 13.931C24.0373 11.149 21.782 8.89368 19 8.89368C16.2179 8.89368 13.9626 11.149 13.9626 13.931C13.9626 16.713 16.2179 18.9683 19 18.9683Z" fill="#F6DB34"/>
<path d="M22.6362 18.4679C21.7022 19.402 20.1342 19.7356 19 19.7356C17.8324 19.7356 16.2645 19.402 15.3304 18.4346C12.0945 19.6689 9.65926 23.6053 9.02543 27.0748C8.82527 28.1089 9.55918 28.9763 10.5933 29.3099C12.6283 29.9437 15.8642 30.3107 19 30.3107C23.1366 30.3107 25.772 29.9103 27.6068 29.2765C28.4742 28.9763 29.108 28.2424 28.9746 27.3416C28.3741 23.7721 25.9388 19.7356 22.6362 18.4679Z" fill="#F6DB34"/>
<path d="M15.0968 17.9008C14.3629 17.2002 13.8292 16.2662 13.5623 15.232C12.9952 15.4322 12.4281 15.4989 11.9277 15.4989C10.9936 15.4989 9.75927 15.232 9.02535 14.4647C6.49001 15.4322 4.55514 18.568 4.02138 21.3035C3.85458 22.1375 4.45506 22.8047 5.25569 23.0716C6.35657 23.4052 7.85776 23.6387 9.49239 23.7721C10.66 21.2701 12.6282 18.8682 15.0968 17.9008Z" fill="white"/>
<path d="M11.8944 14.8984C12.4281 14.8984 12.9619 14.7983 13.4289 14.5982C13.3956 14.3647 13.3956 14.1311 13.3956 13.8976C13.3956 12.0962 14.2629 10.4616 15.5973 9.4274C14.9968 7.95957 13.5624 6.92542 11.8944 6.92542C9.69263 6.92542 7.92456 8.69348 7.92456 10.8952C7.92456 13.097 9.69263 14.8984 11.8944 14.8984Z" fill="white"/>
<path d="M33.9785 21.537C33.5115 18.7014 31.5766 15.5322 28.9746 14.498C28.2406 15.232 27.0063 15.4988 26.0723 15.4988C25.5719 15.4988 24.9714 15.4321 24.4376 15.232C24.1707 16.2661 23.637 17.1668 22.9031 17.9007C25.3717 18.9015 27.3399 21.2701 28.5075 23.8054C30.4424 23.672 31.8435 23.4385 32.911 23.0382C33.6116 22.838 34.112 22.2709 33.9785 21.537Z" fill="white"/>
<path d="M24.6043 13.8976C24.6043 14.1311 24.6043 14.3646 24.571 14.5981C25.038 14.7983 25.5718 14.8984 26.1055 14.8984C28.3073 14.8984 30.0753 13.1303 30.0753 10.9286C30.0753 8.72681 28.3073 6.95874 26.1055 6.95874C24.4375 6.95874 23.0031 7.99289 22.4026 9.46073C23.737 10.4615 24.6043 12.0628 24.6043 13.8976Z" fill="white"/>
</svg>
