<svg width="32" height="32" viewBox="0 0 32 32" fill="none" xmlns="http://www.w3.org/2000/svg">
<path d="M16.4849 15.5152C20.2337 15.5152 23.2728 12.4762 23.2728 8.72733C23.2728 4.97849 20.2337 1.93945 16.4849 1.93945C12.7361 1.93945 9.69702 4.97849 9.69702 8.72733C9.69702 12.4762 12.7361 15.5152 16.4849 15.5152Z" fill="white"/>
<path fill-rule="evenodd" clip-rule="evenodd" d="M21.2452 16.4849C22.524 17.0435 23.7016 17.8276 24.7128 18.8123C26.8946 20.9369 28.1211 23.8196 28.1211 26.8247V27.9578C28.1211 28.5833 27.5998 29.0909 26.9575 29.0909H6.01203C5.3697 29.0909 4.84839 28.5833 4.84839 27.9578C4.84839 27.9578 4.84839 27.5238 4.84839 26.8247C4.84839 23.8196 6.07486 20.9369 8.25668 18.8123C9.26788 17.8276 10.4455 17.0435 11.7243 16.4849C13.1184 17.2951 14.7463 17.7596 16.4848 17.7596C18.2232 17.7596 19.8512 17.2951 21.2452 16.4849Z" fill="#F6DB34"/>
</svg>
