<svg width="36" height="36" viewBox="0 0 36 36" fill="none" xmlns="http://www.w3.org/2000/svg">
<path d="M15.3508 15.4435C13.5163 15.3718 11.727 14.8829 10.0927 14.0226C9.5113 15.8411 9.15602 17.9659 9.09789 20.2602H15.3508V15.4435Z" fill="white"/>
<path d="M15.3508 21.5638H9.09789C9.14956 23.6821 9.45317 25.6571 9.95702 27.3778C11.6559 26.7781 13.4775 26.4392 15.3508 26.3936V21.5638Z" fill="white"/>
<path d="M8.74907 27.8536C8.19354 25.9895 7.85764 23.8646 7.81242 21.5638H3C3.14211 24.5295 4.26609 27.2409 6.04894 29.3723C6.8887 28.7791 7.79304 28.2707 8.74907 27.8536Z" fill="white"/>
<path d="M9.18186 29.1311C8.41963 29.4896 7.68969 29.9067 7.00497 30.3891C8.32273 31.6666 9.90534 32.6638 11.6688 33.2961C10.674 32.2402 9.82137 30.8193 9.18186 29.1311Z" fill="white"/>
<path d="M15.3508 34V27.6972C13.6261 27.7493 11.9401 28.0687 10.3769 28.6357C11.5009 31.634 13.2837 33.6545 15.3508 34Z" fill="white"/>
<path d="M6.84348 11.6109C4.60199 13.8401 3.16149 16.8839 3 20.2602H7.81242C7.8641 17.6987 8.27106 15.3457 8.95578 13.3447C8.21292 12.8559 7.50882 12.2823 6.8564 11.6305C6.84994 11.624 6.84348 11.6174 6.84348 11.6109Z" fill="white"/>
<path d="M15.3508 12.0476L14.7501 11.5327C14.1106 10.9722 13.8974 10.0792 14.2204 9.29055L14.7565 8C13.0706 8.55402 11.6171 10.2356 10.5965 12.6408C12.0758 13.4294 13.6907 13.8792 15.3508 13.9509V12.0476Z" fill="white"/>
<path d="M11.6688 8.54751C10.2929 9.03635 9.02037 9.75984 7.8964 10.6658C8.39379 11.1547 8.92348 11.5849 9.47901 11.9694C10.0798 10.6007 10.8226 9.44046 11.6688 8.54751Z" fill="white"/>
<path d="M16.6427 13.9313C16.9076 13.9118 17.166 13.8792 17.4243 13.8401L16.6427 13.1622V13.9313Z" fill="white"/>
<path d="M16.6427 34C18.684 33.6611 20.4475 31.6861 21.5714 28.7531C20.0276 28.1534 18.361 27.7949 16.6427 27.7167V34Z" fill="white"/>
<path d="M22.76 29.2745C22.1205 30.904 21.2937 32.2727 20.3247 33.2961C22.0171 32.6899 23.5481 31.7448 24.84 30.539C24.194 30.0567 23.4964 29.6395 22.76 29.2745Z" fill="white"/>
<path d="M16.6427 26.4066C18.5096 26.4913 20.3183 26.8629 22.0042 27.4886C22.5274 25.7418 22.844 23.7277 22.8956 21.5638H16.6427V26.4066Z" fill="white"/>
<path d="M16.6427 20.2602H22.8892C22.8634 19.2499 22.7794 18.2462 22.6373 17.275L21.9009 17.2163C21.4874 17.1838 21.1063 17.0208 20.7963 16.7536L18.8455 15.0719C18.1284 15.2544 17.392 15.3848 16.6427 15.4304V20.2602Z" fill="white"/>
<path d="M29 21.5638H24.1811C24.1359 23.9233 23.7871 26.1003 23.1993 27.9905C24.123 28.4207 24.995 28.9356 25.8089 29.5287C27.6758 27.3778 28.8579 24.6077 29 21.5638Z" fill="white"/>
<path d="M28.6383 17.7638L23.9486 17.3793C24.0778 18.3244 24.1617 19.2825 24.1876 20.2602H29C28.9612 19.4129 28.8385 18.5786 28.6383 17.7638Z" fill="white"/>
<path d="M30.4904 20.9482C30.5737 20.9806 30.657 21 30.7338 21C30.9837 21 31.2207 20.851 31.3232 20.5985L34.9552 11.7709C34.9872 11.6931 35 11.6154 35 11.5377C35 11.5183 35 11.5053 34.9936 11.4859C34.9872 11.4211 34.9808 11.3628 34.9552 11.3046C34.9488 11.2851 34.9423 11.2722 34.9359 11.2527C34.9103 11.2009 34.8783 11.1491 34.8399 11.1038C34.827 11.0908 34.8142 11.0714 34.8014 11.0584C34.795 11.052 34.7886 11.039 34.7758 11.0325L26.6855 4.0184C26.583 3.92773 26.4549 3.87591 26.3204 3.86296L15.6934 3.00157C15.4179 2.98214 15.1553 3.14406 15.0464 3.40312C14.9439 3.66219 15.0144 3.96011 15.2258 4.14145L23.3225 11.1556C23.425 11.2398 23.5531 11.2981 23.6876 11.3046L33.437 12.1012L30.1445 20.1062C30.01 20.4301 30.1637 20.8122 30.4904 20.9482Z" fill="#F6DB34"/>
<path d="M29.7666 16.4211C30.0228 16.4211 30.2598 16.2656 30.3559 16.0195L31.5025 13.2346L23.5851 12.5869C23.2264 12.574 22.8293 12.4121 22.509 12.1465L16.4557 6.90695L15.3091 9.69189C15.2002 9.95095 15.2706 10.2489 15.482 10.4302L21.4777 15.618C21.5802 15.7086 21.7083 15.7604 21.8428 15.7734L29.7089 16.4081C29.7282 16.4211 29.7474 16.4211 29.7666 16.4211Z" fill="#F6DB34"/>
</svg>
