<svg width="508" height="206" viewBox="0 0 508 206" fill="none" xmlns="http://www.w3.org/2000/svg">
<line x1="0.646447" y1="264.646" x2="509.646" y2="-244.354" stroke="white" stroke-opacity="0.3"/>
<line x1="19.645" y1="270.646" x2="511.645" y2="-221.354" stroke="white" stroke-opacity="0.3"/>
<line x1="46.645" y1="266.646" x2="511.645" y2="-198.354" stroke="white" stroke-opacity="0.3"/>
<line x1="68.645" y1="269.646" x2="511.645" y2="-173.354" stroke="white" stroke-opacity="0.3"/>
<line x1="93.645" y1="269.646" x2="511.645" y2="-148.354" stroke="white" stroke-opacity="0.3"/>
<line x1="123.645" y1="264.646" x2="511.645" y2="-123.354" stroke="white" stroke-opacity="0.3"/>
<line x1="145.645" y1="267.646" x2="511.645" y2="-98.3542" stroke="white" stroke-opacity="0.3"/>
<line x1="170.645" y1="267.646" x2="511.645" y2="-73.3542" stroke="white" stroke-opacity="0.3"/>
<line x1="197.645" y1="265.646" x2="511.645" y2="-48.3542" stroke="white" stroke-opacity="0.3"/>
<line x1="219.645" y1="268.646" x2="511.645" y2="-23.3543" stroke="white" stroke-opacity="0.3"/>
<line x1="249.645" y1="263.646" x2="511.645" y2="1.64584" stroke="white" stroke-opacity="0.3"/>
<line x1="264.645" y1="273.646" x2="511.645" y2="26.6457" stroke="white" stroke-opacity="0.3"/>
<line x1="285.645" y1="277.646" x2="511.645" y2="51.6457" stroke="white" stroke-opacity="0.3"/>
<line x1="312.645" y1="275.646" x2="511.645" y2="76.6457" stroke="white" stroke-opacity="0.3"/>
<line x1="344.645" y1="268.646" x2="511.645" y2="101.646" stroke="white" stroke-opacity="0.3"/>
<line x1="368.645" y1="269.646" x2="511.645" y2="126.646" stroke="white" stroke-opacity="0.3"/>
<line x1="395.645" y1="267.646" x2="511.645" y2="151.646" stroke="white" stroke-opacity="0.3"/>
<line x1="418.645" y1="269.646" x2="511.645" y2="176.646" stroke="white" stroke-opacity="0.3"/>
<line x1="442.645" y1="270.646" x2="511.645" y2="201.646" stroke="white" stroke-opacity="0.3"/>
</svg>
