<svg width="128" height="86" viewBox="0 0 128 86" fill="none" xmlns="http://www.w3.org/2000/svg">
<path d="M48.0821 20.898V13.396H52.7486V29.8065H49.0154L43.8823 22.3046V29.8065H39.2159V13.396H42.9491L48.0821 20.898Z" fill="#011368"/>
<path d="M59.741 23.6643V25.4929H65.8073V29.8065H55.0745V13.396H65.6907V17.6627H59.741V19.4445H65.1074V23.6643H59.741Z" fill="#011368"/>
<path d="M75.7244 29.8065H71.128L66.5082 13.396H71.6413L73.8579 22.4218L76.4944 13.396H80.0876L82.7241 22.4218L84.9407 13.396H90.0738L85.454 29.8065H80.8575L78.291 21.0386L75.7244 29.8065Z" fill="#011368"/>
<path d="M8.53959 58.0907C6.06638 58.0907 4.0287 57.2702 2.42655 55.6291C0.80885 53.9725 0 51.9329 0 49.5104C0 47.0878 0.80885 45.0483 2.42655 43.3916C4.0287 41.7505 6.06638 40.93 8.53959 40.93C10.0329 40.93 11.4172 41.2895 12.6927 42.0084C13.9838 42.7273 14.9871 43.6963 15.7026 44.9154L11.6428 47.2598C11.3783 46.7284 10.9661 46.3064 10.4062 45.9938C9.8462 45.6812 9.224 45.5249 8.53959 45.5249C7.40409 45.5249 6.4708 45.9 5.73973 46.6502C5.0242 47.3848 4.66644 48.3382 4.66644 49.5104C4.66644 50.6825 5.0242 51.6359 5.73973 52.3705C6.4708 53.1207 7.40409 53.4958 8.53959 53.4958C9.23956 53.4958 9.86175 53.3395 10.4062 53.0269C10.9661 52.7143 11.3783 52.2845 11.6428 51.7375L15.7026 54.0819C14.9871 55.3166 13.9838 56.2934 12.6927 57.0123C11.4172 57.7313 10.0329 58.0907 8.53959 58.0907Z" fill="#011368"/>
<path d="M25.5078 47.1191V41.3051H30.1742V57.7156H25.5078V51.6672H21.5413V57.7156H16.8748V41.3051H21.5413V47.1191H25.5078Z" fill="#011368"/>
<path d="M46.9716 57.7156H41.9552L41.3952 55.6057H36.6821L36.1221 57.7156H31.1057L36.3088 41.3051H41.7685L46.9716 57.7156ZM39.0386 46.8143L37.6854 51.8547H40.3919L39.0386 46.8143Z" fill="#011368"/>
<path d="M52.575 41.3051V53.1676H57.9414V57.7156H47.9085V41.3051H52.575Z" fill="#011368"/>
<path d="M64.0132 41.3051V53.1676H69.3796V57.7156H59.3468V41.3051H64.0132Z" fill="#011368"/>
<path d="M75.4515 51.5734V53.402H81.5178V57.7156H70.785V41.3051H81.4012V45.5718H75.4515V47.3535H80.8179V51.5734H75.4515Z" fill="#011368"/>
<path d="M92.2516 48.807V41.3051H96.918V57.7156H93.1849L88.0518 50.2137V57.7156H83.3853V41.3051H87.1185L92.2516 48.807Z" fill="#011368"/>
<path d="M107.2 48.0334H115.507V49.9792C115.507 52.3392 114.752 54.2772 113.243 55.7932C111.75 57.3249 109.782 58.0907 107.34 58.0907C104.789 58.0907 102.705 57.278 101.087 55.6526C99.4695 53.9959 98.6606 51.9563 98.6606 49.5338C98.6606 47.1113 99.4695 45.0717 101.087 43.415C102.689 41.7583 104.711 40.93 107.154 40.93C108.662 40.93 110.047 41.2738 111.307 41.9615C112.582 42.6336 113.593 43.5635 114.34 44.7513L110.373 47.0253C109.72 46.0251 108.678 45.5249 107.247 45.5249C106.08 45.5249 105.131 45.9 104.4 46.6502C103.685 47.3848 103.327 48.3538 103.327 49.5572C103.327 50.6982 103.662 51.6828 104.33 52.5111C105.015 53.3395 106.049 53.7537 107.434 53.7537C109.051 53.7537 110.132 53.1754 110.677 52.0188H107.2V48.0334Z" fill="#011368"/>
<path d="M121.934 51.5734V53.402H128V57.7156H117.267V41.3051H127.883V45.5718H121.934V47.3535H127.3V51.5734H121.934Z" fill="#011368"/>
<path d="M47.0583 85.9998C44.585 85.9998 42.5474 85.1793 40.9452 83.5382C39.3275 81.8815 38.5187 79.8419 38.5187 77.4194C38.5187 74.9969 39.3275 72.9573 40.9452 71.3006C42.5474 69.6596 44.585 68.8391 47.0583 68.8391C48.5515 68.8391 49.9359 69.1985 51.2114 69.9175C52.5024 70.6364 53.5057 71.6054 54.2212 72.8245L50.1614 75.1688C49.897 74.6375 49.4848 74.2155 48.9248 73.9029C48.3649 73.5903 47.7427 73.434 47.0583 73.434C45.9228 73.434 44.9895 73.8091 44.2584 74.5593C43.5429 75.2939 43.1851 76.2473 43.1851 77.4194C43.1851 78.5916 43.5429 79.545 44.2584 80.2796C44.9895 81.0298 45.9228 81.4049 47.0583 81.4049C47.7582 81.4049 48.3804 81.2486 48.9248 80.936C49.4848 80.6234 49.897 80.1936 50.1614 79.6466L54.2212 81.9909C53.5057 83.2256 52.5024 84.2025 51.2114 84.9214C49.9359 85.6403 48.5515 85.9998 47.0583 85.9998Z" fill="#011368"/>
<path d="M60.06 69.2142V81.0766H65.4264V85.6247H55.3935V69.2142H60.06Z" fill="#011368"/>
<path d="M66.4845 80.1389V69.2142H71.151V79.6231C71.151 80.8422 71.812 81.4517 73.1342 81.4517C74.4564 81.4517 75.1174 80.8422 75.1174 79.6231V69.2142H79.7839V80.1389C79.7839 81.8894 79.1695 83.3038 77.9406 84.3822C76.7118 85.4606 75.1097 85.9998 73.1342 85.9998C71.1587 85.9998 69.5566 85.4606 68.3278 84.3822C67.0989 83.3038 66.4845 81.8894 66.4845 80.1389Z" fill="#011368"/>
<path d="M92.3924 77.1616C93.7923 77.9586 94.4923 79.1699 94.4923 80.7953C94.4923 82.3113 94.0023 83.4992 93.0224 84.3588C92.0424 85.2027 90.6347 85.6247 88.7992 85.6247H81.8929V69.2142H88.3792C90.2147 69.2142 91.6146 69.6127 92.579 70.4098C93.5434 71.2069 94.0257 72.3478 94.0257 73.8326C94.0257 75.2548 93.4812 76.3645 92.3924 77.1616ZM88.0993 73.2465H86.5593V75.4502L88.3559 75.4267C89.0248 75.333 89.3592 74.9735 89.3592 74.3483C89.3592 74.0045 89.2348 73.7388 88.9859 73.5512C88.7526 73.3481 88.457 73.2465 88.0993 73.2465ZM86.5593 81.5924H88.5192C88.8926 81.5924 89.2037 81.483 89.4525 81.2642C89.7014 81.0454 89.8259 80.7641 89.8259 80.4202C89.8259 79.7638 89.4759 79.3809 88.7759 79.2715L86.5593 79.248V81.5924Z" fill="#011368"/>
<path d="M93.6067 0L95.3048 7.50374L102.773 9.21L95.3048 10.9163L93.6067 18.42L91.9085 10.9163L84.4404 9.21L91.9085 7.50374L93.6067 0Z" fill="#F6DB34"/>
</svg>
